%TF.GenerationSoftware,KiCad,Pcbnew,(6.0.0)*%
%TF.CreationDate,2022-02-07T22:24:18-06:00*%
%TF.ProjectId,PiDRO_interface,50694452-4f5f-4696-9e74-657266616365,rev?*%
%TF.SameCoordinates,Original*%
%TF.FileFunction,Paste,Top*%
%TF.FilePolarity,Positive*%
%FSLAX46Y46*%
G04 Gerber Fmt 4.6, Leading zero omitted, Abs format (unit mm)*
G04 Created by KiCad (PCBNEW (6.0.0)) date 2022-02-07 22:24:18*
%MOMM*%
%LPD*%
G01*
G04 APERTURE LIST*
G04 Aperture macros list*
%AMRoundRect*
0 Rectangle with rounded corners*
0 $1 Rounding radius*
0 $2 $3 $4 $5 $6 $7 $8 $9 X,Y pos of 4 corners*
0 Add a 4 corners polygon primitive as box body*
4,1,4,$2,$3,$4,$5,$6,$7,$8,$9,$2,$3,0*
0 Add four circle primitives for the rounded corners*
1,1,$1+$1,$2,$3*
1,1,$1+$1,$4,$5*
1,1,$1+$1,$6,$7*
1,1,$1+$1,$8,$9*
0 Add four rect primitives between the rounded corners*
20,1,$1+$1,$2,$3,$4,$5,0*
20,1,$1+$1,$4,$5,$6,$7,0*
20,1,$1+$1,$6,$7,$8,$9,0*
20,1,$1+$1,$8,$9,$2,$3,0*%
%AMFreePoly0*
4,1,14,0.106694,0.394194,0.125000,0.350000,0.125000,-0.350000,0.106694,-0.394194,0.062500,-0.412500,-0.009112,-0.412500,-0.053306,-0.394194,-0.106694,-0.340806,-0.125000,-0.296612,-0.125000,0.350000,-0.106694,0.394194,-0.062500,0.412500,0.062500,0.412500,0.106694,0.394194,0.106694,0.394194,$1*%
%AMFreePoly1*
4,1,14,0.106694,0.394194,0.125000,0.350000,0.125000,-0.296612,0.106694,-0.340806,0.053306,-0.394194,0.009112,-0.412500,-0.062500,-0.412500,-0.106694,-0.394194,-0.125000,-0.350000,-0.125000,0.350000,-0.106694,0.394194,-0.062500,0.412500,0.062500,0.412500,0.106694,0.394194,0.106694,0.394194,$1*%
%AMFreePoly2*
4,1,14,0.394194,0.106694,0.412500,0.062500,0.412500,-0.062500,0.394194,-0.106694,0.350000,-0.125000,-0.350000,-0.125000,-0.394194,-0.106694,-0.412500,-0.062500,-0.412500,0.009112,-0.394194,0.053306,-0.340806,0.106694,-0.296612,0.125000,0.350000,0.125000,0.394194,0.106694,0.394194,0.106694,$1*%
%AMFreePoly3*
4,1,14,0.394194,0.106694,0.412500,0.062500,0.412500,-0.062500,0.394194,-0.106694,0.350000,-0.125000,-0.296612,-0.125000,-0.340806,-0.106694,-0.394194,-0.053306,-0.412500,-0.009112,-0.412500,0.062500,-0.394194,0.106694,-0.350000,0.125000,0.350000,0.125000,0.394194,0.106694,0.394194,0.106694,$1*%
%AMFreePoly4*
4,1,14,0.053306,0.394194,0.106694,0.340806,0.125000,0.296612,0.125000,-0.350000,0.106694,-0.394194,0.062500,-0.412500,-0.062500,-0.412500,-0.106694,-0.394194,-0.125000,-0.350000,-0.125000,0.350000,-0.106694,0.394194,-0.062500,0.412500,0.009112,0.412500,0.053306,0.394194,0.053306,0.394194,$1*%
%AMFreePoly5*
4,1,14,0.106694,0.394194,0.125000,0.350000,0.125000,-0.350000,0.106694,-0.394194,0.062500,-0.412500,-0.062500,-0.412500,-0.106694,-0.394194,-0.125000,-0.350000,-0.125000,0.296612,-0.106694,0.340806,-0.053306,0.394194,-0.009112,0.412500,0.062500,0.412500,0.106694,0.394194,0.106694,0.394194,$1*%
%AMFreePoly6*
4,1,14,0.394194,0.106694,0.412500,0.062500,0.412500,-0.009112,0.394194,-0.053306,0.340806,-0.106694,0.296612,-0.125000,-0.350000,-0.125000,-0.394194,-0.106694,-0.412500,-0.062500,-0.412500,0.062500,-0.394194,0.106694,-0.350000,0.125000,0.350000,0.125000,0.394194,0.106694,0.394194,0.106694,$1*%
%AMFreePoly7*
4,1,14,0.340806,0.106694,0.394194,0.053306,0.412500,0.009112,0.412500,-0.062500,0.394194,-0.106694,0.350000,-0.125000,-0.350000,-0.125000,-0.394194,-0.106694,-0.412500,-0.062500,-0.412500,0.062500,-0.394194,0.106694,-0.350000,0.125000,0.296612,0.125000,0.340806,0.106694,0.340806,0.106694,$1*%
G04 Aperture macros list end*
%ADD10RoundRect,0.200000X-0.200000X-0.275000X0.200000X-0.275000X0.200000X0.275000X-0.200000X0.275000X0*%
%ADD11RoundRect,0.200000X-0.275000X0.200000X-0.275000X-0.200000X0.275000X-0.200000X0.275000X0.200000X0*%
%ADD12RoundRect,0.200000X0.275000X-0.200000X0.275000X0.200000X-0.275000X0.200000X-0.275000X-0.200000X0*%
%ADD13RoundRect,0.250000X-0.250000X-0.475000X0.250000X-0.475000X0.250000X0.475000X-0.250000X0.475000X0*%
%ADD14RoundRect,0.150000X-0.837500X-0.150000X0.837500X-0.150000X0.837500X0.150000X-0.837500X0.150000X0*%
%ADD15R,2.000000X1.800000*%
%ADD16RoundRect,0.250000X0.475000X-0.250000X0.475000X0.250000X-0.475000X0.250000X-0.475000X-0.250000X0*%
%ADD17RoundRect,0.200000X0.200000X0.275000X-0.200000X0.275000X-0.200000X-0.275000X0.200000X-0.275000X0*%
%ADD18RoundRect,0.150000X-0.150000X0.512500X-0.150000X-0.512500X0.150000X-0.512500X0.150000X0.512500X0*%
%ADD19RoundRect,0.243750X0.243750X0.456250X-0.243750X0.456250X-0.243750X-0.456250X0.243750X-0.456250X0*%
%ADD20RoundRect,0.225000X0.250000X-0.225000X0.250000X0.225000X-0.250000X0.225000X-0.250000X-0.225000X0*%
%ADD21C,0.635000*%
%ADD22R,0.510000X0.700000*%
%ADD23RoundRect,0.250000X-0.475000X0.250000X-0.475000X-0.250000X0.475000X-0.250000X0.475000X0.250000X0*%
%ADD24RoundRect,0.250000X0.250000X0.475000X-0.250000X0.475000X-0.250000X-0.475000X0.250000X-0.475000X0*%
%ADD25FreePoly0,0.000000*%
%ADD26RoundRect,0.062500X-0.062500X-0.350000X0.062500X-0.350000X0.062500X0.350000X-0.062500X0.350000X0*%
%ADD27FreePoly1,0.000000*%
%ADD28FreePoly2,0.000000*%
%ADD29RoundRect,0.062500X-0.350000X-0.062500X0.350000X-0.062500X0.350000X0.062500X-0.350000X0.062500X0*%
%ADD30FreePoly3,0.000000*%
%ADD31FreePoly4,0.000000*%
%ADD32FreePoly5,0.000000*%
%ADD33FreePoly6,0.000000*%
%ADD34FreePoly7,0.000000*%
%ADD35RoundRect,0.212500X-0.212500X-0.212500X0.212500X-0.212500X0.212500X0.212500X-0.212500X0.212500X0*%
G04 APERTURE END LIST*
D10*
%TO.C,R21*%
X150305000Y-52070000D03*
X151955000Y-52070000D03*
%TD*%
%TO.C,R20*%
X150305000Y-54610000D03*
X151955000Y-54610000D03*
%TD*%
%TO.C,R19*%
X150305000Y-57150000D03*
X151955000Y-57150000D03*
%TD*%
%TO.C,R18*%
X135065000Y-52070000D03*
X136715000Y-52070000D03*
%TD*%
%TO.C,R17*%
X135065000Y-54610000D03*
X136715000Y-54610000D03*
%TD*%
D11*
%TO.C,R16*%
X145415000Y-56960000D03*
X145415000Y-58610000D03*
%TD*%
D12*
%TO.C,R15*%
X121285000Y-52260000D03*
X121285000Y-50610000D03*
%TD*%
D10*
%TO.C,R14*%
X129350000Y-59055000D03*
X131000000Y-59055000D03*
%TD*%
%TO.C,R13*%
X129985000Y-54610000D03*
X131635000Y-54610000D03*
%TD*%
%TO.C,R12*%
X104585000Y-52070000D03*
X106235000Y-52070000D03*
%TD*%
%TO.C,R11*%
X104585000Y-54610000D03*
X106235000Y-54610000D03*
%TD*%
%TO.C,R10*%
X110935000Y-62230000D03*
X112585000Y-62230000D03*
%TD*%
%TO.C,R9*%
X97980000Y-59690000D03*
X96330000Y-59690000D03*
%TD*%
D11*
%TO.C,R8*%
X93980000Y-65850000D03*
X93980000Y-67500000D03*
%TD*%
%TO.C,R7*%
X100330000Y-56960000D03*
X100330000Y-58610000D03*
%TD*%
D13*
%TO.C,C8*%
X120970000Y-80645000D03*
X122870000Y-80645000D03*
%TD*%
D14*
%TO.C,U6*%
X145127500Y-62230000D03*
X145127500Y-63500000D03*
X145127500Y-64770000D03*
X145127500Y-66040000D03*
X145127500Y-67310000D03*
X145127500Y-68580000D03*
X145127500Y-69850000D03*
X152052500Y-69850000D03*
X152052500Y-68580000D03*
X152052500Y-67310000D03*
X152052500Y-66040000D03*
X152052500Y-64770000D03*
X152052500Y-63500000D03*
X152052500Y-62230000D03*
%TD*%
D15*
%TO.C,Y1*%
X136720000Y-81280000D03*
X136720000Y-76200000D03*
X132520000Y-76200000D03*
X132520000Y-81280000D03*
%TD*%
D16*
%TO.C,C11*%
X119380000Y-61275000D03*
X119380000Y-59375000D03*
%TD*%
D14*
%TO.C,U1*%
X99407500Y-62230000D03*
X99407500Y-63500000D03*
X99407500Y-64770000D03*
X99407500Y-66040000D03*
X99407500Y-67310000D03*
X99407500Y-68580000D03*
X99407500Y-69850000D03*
X106332500Y-69850000D03*
X106332500Y-68580000D03*
X106332500Y-67310000D03*
X106332500Y-66040000D03*
X106332500Y-64770000D03*
X106332500Y-63500000D03*
X106332500Y-62230000D03*
%TD*%
D16*
%TO.C,C6*%
X118110000Y-69530000D03*
X118110000Y-67630000D03*
%TD*%
D17*
%TO.C,R4*%
X161480000Y-69850000D03*
X159830000Y-69850000D03*
%TD*%
D18*
%TO.C,U2*%
X123505000Y-59187500D03*
X122555000Y-59187500D03*
X121605000Y-59187500D03*
X121605000Y-61462500D03*
X123505000Y-61462500D03*
%TD*%
D13*
%TO.C,C15*%
X123510000Y-71755000D03*
X125410000Y-71755000D03*
%TD*%
%TO.C,C7*%
X123510000Y-78105000D03*
X125410000Y-78105000D03*
%TD*%
D19*
%TO.C,D1*%
X157782500Y-69850000D03*
X155907500Y-69850000D03*
%TD*%
D16*
%TO.C,C17*%
X115570000Y-53020000D03*
X115570000Y-51120000D03*
%TD*%
D20*
%TO.C,C9*%
X130175000Y-81420000D03*
X130175000Y-79870000D03*
%TD*%
D16*
%TO.C,C18*%
X130810000Y-53020000D03*
X130810000Y-51120000D03*
%TD*%
D21*
%TO.C,icon1*%
X158115000Y-77470000D03*
X158750000Y-78105000D03*
X157480000Y-78105000D03*
%TD*%
D22*
%TO.C,U5*%
X116930000Y-59165000D03*
X115980000Y-59165000D03*
X115030000Y-59165000D03*
X115030000Y-61485000D03*
X116930000Y-61485000D03*
%TD*%
D10*
%TO.C,R1*%
X139510000Y-83820000D03*
X141160000Y-83820000D03*
%TD*%
D16*
%TO.C,C20*%
X161290000Y-53020000D03*
X161290000Y-51120000D03*
%TD*%
D17*
%TO.C,R5*%
X141160000Y-81280000D03*
X139510000Y-81280000D03*
%TD*%
D13*
%TO.C,C3*%
X156530000Y-60325000D03*
X158430000Y-60325000D03*
%TD*%
D23*
%TO.C,C4*%
X114300000Y-80330000D03*
X114300000Y-82230000D03*
%TD*%
D14*
%TO.C,U3*%
X129887500Y-62230000D03*
X129887500Y-63500000D03*
X129887500Y-64770000D03*
X129887500Y-66040000D03*
X129887500Y-67310000D03*
X129887500Y-68580000D03*
X129887500Y-69850000D03*
X136812500Y-69850000D03*
X136812500Y-68580000D03*
X136812500Y-67310000D03*
X136812500Y-66040000D03*
X136812500Y-64770000D03*
X136812500Y-63500000D03*
X136812500Y-62230000D03*
%TD*%
D24*
%TO.C,C1*%
X107630000Y-59690000D03*
X105730000Y-59690000D03*
%TD*%
D16*
%TO.C,C19*%
X146050000Y-53020000D03*
X146050000Y-51120000D03*
%TD*%
%TO.C,C14*%
X125730000Y-61275000D03*
X125730000Y-59375000D03*
%TD*%
D24*
%TO.C,C13*%
X121600000Y-57150000D03*
X119700000Y-57150000D03*
%TD*%
D19*
%TO.C,D2*%
X157782500Y-66675000D03*
X155907500Y-66675000D03*
%TD*%
D16*
%TO.C,C16*%
X100330000Y-53020000D03*
X100330000Y-51120000D03*
%TD*%
D10*
%TO.C,R2*%
X149670000Y-76200000D03*
X151320000Y-76200000D03*
%TD*%
D24*
%TO.C,C10*%
X116930000Y-57150000D03*
X115030000Y-57150000D03*
%TD*%
D16*
%TO.C,C12*%
X121285000Y-70165000D03*
X121285000Y-68265000D03*
%TD*%
D10*
%TO.C,R3*%
X112840000Y-84455000D03*
X114490000Y-84455000D03*
%TD*%
D17*
%TO.C,R6*%
X161480000Y-66675000D03*
X159830000Y-66675000D03*
%TD*%
D24*
%TO.C,C5*%
X112710000Y-74930000D03*
X110810000Y-74930000D03*
%TD*%
D25*
%TO.C,U4*%
X116360000Y-72492500D03*
D26*
X116860000Y-72492500D03*
X117360000Y-72492500D03*
X117860000Y-72492500D03*
X118360000Y-72492500D03*
X118860000Y-72492500D03*
X119360000Y-72492500D03*
D27*
X119860000Y-72492500D03*
D28*
X120547500Y-73180000D03*
D29*
X120547500Y-73680000D03*
X120547500Y-74180000D03*
X120547500Y-74680000D03*
X120547500Y-75180000D03*
X120547500Y-75680000D03*
X120547500Y-76180000D03*
D30*
X120547500Y-76680000D03*
D31*
X119860000Y-77367500D03*
D26*
X119360000Y-77367500D03*
X118860000Y-77367500D03*
X118360000Y-77367500D03*
X117860000Y-77367500D03*
X117360000Y-77367500D03*
X116860000Y-77367500D03*
D32*
X116360000Y-77367500D03*
D33*
X115672500Y-76680000D03*
D29*
X115672500Y-76180000D03*
X115672500Y-75680000D03*
X115672500Y-75180000D03*
X115672500Y-74680000D03*
X115672500Y-74180000D03*
X115672500Y-73680000D03*
D34*
X115672500Y-73180000D03*
D35*
X118635000Y-74405000D03*
X118635000Y-75455000D03*
X117585000Y-75455000D03*
X117585000Y-74405000D03*
%TD*%
D24*
%TO.C,C2*%
X138110000Y-59690000D03*
X136210000Y-59690000D03*
%TD*%
M02*
