%FSLAX45Y45*%
G04 Gerber Fmt 4.5, Leading zero omitted, Abs format (unit mm)*
G04 Created by KiCad (PCBNEW (6.0.0)) date 2022-02-07 22:24:20*
%MOMM*%
%LPD*%
G01*
G04 APERTURE LIST*
%TA.AperFunction,Profile*%
%ADD10C,0.100000*%
%TD*%
%ADD11C,0.200000*%
%ADD12C,0.040000*%
%ADD13C,0.100000*%
%ADD14C,0.120000*%
G04 APERTURE END LIST*
D10*
X9461500Y-4064000D02*
G75*
G03*
X9080500Y-4445000I0J-381000D01*
G01*
X9080500Y-8826500D02*
X9080500Y-4445000D01*
X9080500Y-8826500D02*
G75*
G03*
X9461500Y-9207500I381000J0D01*
G01*
X9461500Y-4064000D02*
X15938500Y-4064000D01*
X15938500Y-9207500D02*
G75*
G03*
X16319500Y-8826500I0J381000D01*
G01*
X16319500Y-4445000D02*
X16319500Y-8826500D01*
X15938500Y-9207500D02*
X9461500Y-9207500D01*
X16319500Y-4445000D02*
G75*
G03*
X15938500Y-4064000I-381000J0D01*
G01*
D11*
D12*
X9187500Y-5695000D02*
X9227500Y-5735000D01*
X9227500Y-5695000D02*
X9187500Y-5735000D01*
X9187500Y-5885500D02*
X9227500Y-5925500D01*
X9227500Y-5885500D02*
X9187500Y-5925500D01*
X9632000Y-6330000D02*
X9672000Y-6370000D01*
X9672000Y-6330000D02*
X9632000Y-6370000D01*
X9695500Y-5758500D02*
X9735500Y-5798500D01*
X9735500Y-5758500D02*
X9695500Y-5798500D01*
X9708200Y-6965000D02*
X9748200Y-7005000D01*
X9748200Y-6965000D02*
X9708200Y-7005000D01*
X9886000Y-5949000D02*
X9926000Y-5989000D01*
X9926000Y-5949000D02*
X9886000Y-5989000D01*
X10013000Y-4933000D02*
X10053000Y-4973000D01*
X10053000Y-4933000D02*
X10013000Y-4973000D01*
X10013000Y-5441000D02*
X10053000Y-5481000D01*
X10053000Y-5441000D02*
X10013000Y-5481000D01*
X10076500Y-6330000D02*
X10116500Y-6370000D01*
X10116500Y-6330000D02*
X10076500Y-6370000D01*
X10076500Y-6584000D02*
X10116500Y-6624000D01*
X10116500Y-6584000D02*
X10076500Y-6624000D01*
X10140000Y-6838000D02*
X10180000Y-6878000D01*
X10180000Y-6838000D02*
X10140000Y-6878000D01*
X10394000Y-6711000D02*
X10434000Y-6751000D01*
X10434000Y-6711000D02*
X10394000Y-6751000D01*
X10394000Y-6965000D02*
X10434000Y-7005000D01*
X10434000Y-6965000D02*
X10394000Y-7005000D01*
X10546400Y-5783900D02*
X10586400Y-5823900D01*
X10586400Y-5783900D02*
X10546400Y-5823900D01*
X10838500Y-6139500D02*
X10878500Y-6179500D01*
X10878500Y-6139500D02*
X10838500Y-6179500D01*
X10838500Y-8171500D02*
X10878500Y-8211500D01*
X10878500Y-8171500D02*
X10838500Y-8211500D01*
X10914700Y-7473000D02*
X10954700Y-7513000D01*
X10954700Y-7473000D02*
X10914700Y-7513000D01*
X10965500Y-6393500D02*
X11005500Y-6433500D01*
X11005500Y-6393500D02*
X10965500Y-6433500D01*
X10965500Y-8425500D02*
X11005500Y-8465500D01*
X11005500Y-8425500D02*
X10965500Y-8465500D01*
X10990900Y-6965000D02*
X11030900Y-7005000D01*
X11030900Y-6965000D02*
X10990900Y-7005000D01*
X11067100Y-5860100D02*
X11107100Y-5900100D01*
X11107100Y-5860100D02*
X11067100Y-5900100D01*
X11092500Y-8171500D02*
X11132500Y-8211500D01*
X11132500Y-8171500D02*
X11092500Y-8211500D01*
X11219500Y-6393500D02*
X11259500Y-6433500D01*
X11259500Y-6393500D02*
X11219500Y-6433500D01*
X11219500Y-6965000D02*
X11259500Y-7005000D01*
X11259500Y-6965000D02*
X11219500Y-7005000D01*
X11283000Y-6012500D02*
X11323000Y-6052500D01*
X11323000Y-6012500D02*
X11283000Y-6052500D01*
X11359200Y-7473000D02*
X11399200Y-7513000D01*
X11399200Y-7473000D02*
X11359200Y-7513000D01*
X11410000Y-7904800D02*
X11450000Y-7944800D01*
X11450000Y-7904800D02*
X11410000Y-7944800D01*
X11473500Y-5504500D02*
X11513500Y-5544500D01*
X11513500Y-5504500D02*
X11473500Y-5544500D01*
X11537000Y-4933000D02*
X11577000Y-4973000D01*
X11577000Y-4933000D02*
X11537000Y-4973000D01*
X11575100Y-6012500D02*
X11615100Y-6052500D01*
X11615100Y-6012500D02*
X11575100Y-6052500D01*
X11575100Y-8196900D02*
X11615100Y-8236900D01*
X11615100Y-8196900D02*
X11575100Y-8236900D01*
X11600500Y-8425500D02*
X11640500Y-8465500D01*
X11640500Y-8425500D02*
X11600500Y-8465500D01*
X11676700Y-5504500D02*
X11716700Y-5544500D01*
X11716700Y-5504500D02*
X11676700Y-5544500D01*
X11791000Y-6596700D02*
X11831000Y-6636700D01*
X11831000Y-6596700D02*
X11791000Y-6636700D01*
X11791000Y-7041200D02*
X11831000Y-7081200D01*
X11831000Y-7041200D02*
X11791000Y-7081200D01*
X11791000Y-7473000D02*
X11831000Y-7513000D01*
X11831000Y-7473000D02*
X11791000Y-7513000D01*
X11918000Y-5250500D02*
X11958000Y-5290500D01*
X11958000Y-5250500D02*
X11918000Y-5290500D01*
X11918000Y-5504500D02*
X11958000Y-5544500D01*
X11958000Y-5504500D02*
X11918000Y-5544500D01*
X11918000Y-6241100D02*
X11958000Y-6281100D01*
X11958000Y-6241100D02*
X11918000Y-6281100D01*
X12070400Y-7904800D02*
X12110400Y-7944800D01*
X12110400Y-7904800D02*
X12070400Y-7944800D01*
X12108500Y-7104700D02*
X12148500Y-7144700D01*
X12148500Y-7104700D02*
X12108500Y-7144700D01*
X12146600Y-5504500D02*
X12186600Y-5544500D01*
X12186600Y-5504500D02*
X12146600Y-5544500D01*
X12222800Y-7790500D02*
X12262800Y-7830500D01*
X12262800Y-7790500D02*
X12222800Y-7830500D01*
X12235500Y-6012500D02*
X12275500Y-6052500D01*
X12275500Y-6012500D02*
X12235500Y-6052500D01*
X12235500Y-7447600D02*
X12275500Y-7487600D01*
X12275500Y-7447600D02*
X12235500Y-7487600D01*
X12286300Y-6812600D02*
X12326300Y-6852600D01*
X12326300Y-6812600D02*
X12286300Y-6852600D01*
X12426000Y-8044500D02*
X12466000Y-8084500D01*
X12466000Y-8044500D02*
X12426000Y-8084500D01*
X12451400Y-6253800D02*
X12491400Y-6293800D01*
X12491400Y-6253800D02*
X12451400Y-6293800D01*
X12451400Y-6990400D02*
X12491400Y-7030400D01*
X12491400Y-6990400D02*
X12451400Y-7030400D01*
X12502200Y-7511100D02*
X12542200Y-7551100D01*
X12542200Y-7511100D02*
X12502200Y-7551100D01*
X12527600Y-7955600D02*
X12567600Y-7995600D01*
X12567600Y-7955600D02*
X12527600Y-7995600D01*
X12553000Y-6330000D02*
X12593000Y-6370000D01*
X12593000Y-6330000D02*
X12553000Y-6370000D01*
X12616500Y-6774500D02*
X12656500Y-6814500D01*
X12656500Y-6774500D02*
X12616500Y-6814500D01*
X12667300Y-7193600D02*
X12707300Y-7233600D01*
X12707300Y-7193600D02*
X12667300Y-7233600D01*
X12718100Y-5923600D02*
X12758100Y-5963600D01*
X12758100Y-5923600D02*
X12718100Y-5963600D01*
X12743500Y-8501700D02*
X12783500Y-8541700D01*
X12783500Y-8501700D02*
X12743500Y-8541700D01*
X12807000Y-6330000D02*
X12847000Y-6370000D01*
X12847000Y-6330000D02*
X12807000Y-6370000D01*
X12807000Y-7981000D02*
X12847000Y-8021000D01*
X12847000Y-7981000D02*
X12807000Y-8021000D01*
X12807000Y-8108000D02*
X12847000Y-8148000D01*
X12847000Y-8108000D02*
X12807000Y-8148000D01*
X12934000Y-6076000D02*
X12974000Y-6116000D01*
X12974000Y-6076000D02*
X12934000Y-6116000D01*
X13061000Y-4933000D02*
X13101000Y-4973000D01*
X13101000Y-4933000D02*
X13061000Y-4973000D01*
X13061000Y-5669600D02*
X13101000Y-5709600D01*
X13101000Y-5669600D02*
X13061000Y-5709600D01*
X13124500Y-8489000D02*
X13164500Y-8529000D01*
X13164500Y-8489000D02*
X13124500Y-8529000D01*
X13162600Y-6965000D02*
X13202600Y-7005000D01*
X13202600Y-6965000D02*
X13162600Y-7005000D01*
X13175300Y-6584000D02*
X13215300Y-6624000D01*
X13215300Y-6584000D02*
X13175300Y-6624000D01*
X13442000Y-6711000D02*
X13482000Y-6751000D01*
X13482000Y-6711000D02*
X13442000Y-6751000D01*
X13442000Y-7765100D02*
X13482000Y-7805100D01*
X13482000Y-7765100D02*
X13442000Y-7805100D01*
X13442000Y-7968300D02*
X13482000Y-8008300D01*
X13482000Y-7968300D02*
X13442000Y-8008300D01*
X13505500Y-6457000D02*
X13545500Y-6497000D01*
X13545500Y-6457000D02*
X13505500Y-6497000D01*
X13594400Y-5783900D02*
X13634400Y-5823900D01*
X13634400Y-5783900D02*
X13594400Y-5823900D01*
X13823000Y-8362000D02*
X13863000Y-8402000D01*
X13863000Y-8362000D02*
X13823000Y-8402000D01*
X13886500Y-6139500D02*
X13926500Y-6179500D01*
X13926500Y-6139500D02*
X13886500Y-6179500D01*
X14204000Y-6457000D02*
X14244000Y-6497000D01*
X14244000Y-6457000D02*
X14204000Y-6497000D01*
X14204000Y-6698300D02*
X14244000Y-6738300D01*
X14244000Y-6698300D02*
X14204000Y-6738300D01*
X14267500Y-8108000D02*
X14307500Y-8148000D01*
X14307500Y-8108000D02*
X14267500Y-8148000D01*
X14267500Y-8362000D02*
X14307500Y-8402000D01*
X14307500Y-8362000D02*
X14267500Y-8402000D01*
X14280200Y-5885500D02*
X14320200Y-5925500D01*
X14320200Y-5885500D02*
X14280200Y-5925500D01*
X14280200Y-6139500D02*
X14320200Y-6179500D01*
X14320200Y-6139500D02*
X14280200Y-6179500D01*
X14305600Y-6965000D02*
X14345600Y-7005000D01*
X14345600Y-6965000D02*
X14305600Y-7005000D01*
X14394500Y-7790500D02*
X14434500Y-7830500D01*
X14434500Y-7790500D02*
X14394500Y-7830500D01*
X14585000Y-4933000D02*
X14625000Y-4973000D01*
X14625000Y-4933000D02*
X14585000Y-4973000D01*
X14585000Y-7981000D02*
X14625000Y-8021000D01*
X14625000Y-7981000D02*
X14585000Y-8021000D01*
X14648500Y-7346000D02*
X14688500Y-7386000D01*
X14688500Y-7346000D02*
X14648500Y-7386000D01*
X14673900Y-6965000D02*
X14713900Y-7005000D01*
X14713900Y-6965000D02*
X14673900Y-7005000D01*
X14712000Y-6584000D02*
X14752000Y-6624000D01*
X14752000Y-6584000D02*
X14712000Y-6624000D01*
X14750100Y-6241100D02*
X14790100Y-6281100D01*
X14790100Y-6241100D02*
X14750100Y-6281100D01*
X14775500Y-7600000D02*
X14815500Y-7640000D01*
X14815500Y-7600000D02*
X14775500Y-7640000D01*
X14877100Y-6965000D02*
X14917100Y-7005000D01*
X14917100Y-6965000D02*
X14877100Y-7005000D01*
X14902500Y-7346000D02*
X14942500Y-7386000D01*
X14942500Y-7346000D02*
X14902500Y-7386000D01*
X15004100Y-6139500D02*
X15044100Y-6179500D01*
X15044100Y-6139500D02*
X15004100Y-6179500D01*
X15029500Y-5910900D02*
X15069500Y-5950900D01*
X15069500Y-5910900D02*
X15029500Y-5950900D01*
X15156500Y-7981000D02*
X15196500Y-8021000D01*
X15196500Y-7981000D02*
X15156500Y-8021000D01*
X15347000Y-7346000D02*
X15387000Y-7386000D01*
X15387000Y-7346000D02*
X15347000Y-7386000D01*
X15410500Y-7981000D02*
X15450500Y-8021000D01*
X15450500Y-7981000D02*
X15410500Y-8021000D01*
X15474000Y-6012500D02*
X15514000Y-6052500D01*
X15514000Y-6012500D02*
X15474000Y-6052500D01*
X15982000Y-6012500D02*
X16022000Y-6052500D01*
X16022000Y-6012500D02*
X15982000Y-6052500D01*
X16109000Y-4933000D02*
X16149000Y-4973000D01*
X16149000Y-4933000D02*
X16109000Y-4973000D01*
X16121700Y-6495100D02*
X16161700Y-6535100D01*
X16161700Y-6495100D02*
X16121700Y-6535100D01*
X16134400Y-7117400D02*
X16174400Y-7157400D01*
X16174400Y-7117400D02*
X16134400Y-7157400D01*
D13*
X9448000Y-5081500D02*
G75*
G03*
X9448000Y-5081500I-50000J0D01*
G01*
X9448000Y-5335500D02*
G75*
G03*
X9448000Y-5335500I-50000J0D01*
G01*
X9448000Y-5589500D02*
G75*
G03*
X9448000Y-5589500I-50000J0D01*
G01*
X9702000Y-5081500D02*
G75*
G03*
X9702000Y-5081500I-50000J0D01*
G01*
X9702000Y-5335500D02*
G75*
G03*
X9702000Y-5335500I-50000J0D01*
G01*
X9702000Y-5589500D02*
G75*
G03*
X9702000Y-5589500I-50000J0D01*
G01*
X10337000Y-4826000D02*
G75*
G03*
X10337000Y-4826000I-50000J0D01*
G01*
X10654500Y-8699500D02*
G75*
G03*
X10654500Y-8699500I-50000J0D01*
G01*
X10654500Y-8953500D02*
G75*
G03*
X10654500Y-8953500I-50000J0D01*
G01*
X10908500Y-8699500D02*
G75*
G03*
X10908500Y-8699500I-50000J0D01*
G01*
X10908500Y-8953500D02*
G75*
G03*
X10908500Y-8953500I-50000J0D01*
G01*
X10972000Y-5080000D02*
G75*
G03*
X10972000Y-5080000I-50000J0D01*
G01*
X10972000Y-5334000D02*
G75*
G03*
X10972000Y-5334000I-50000J0D01*
G01*
X10972000Y-5588000D02*
G75*
G03*
X10972000Y-5588000I-50000J0D01*
G01*
X11162500Y-8699500D02*
G75*
G03*
X11162500Y-8699500I-50000J0D01*
G01*
X11162500Y-8953500D02*
G75*
G03*
X11162500Y-8953500I-50000J0D01*
G01*
X11226000Y-5080000D02*
G75*
G03*
X11226000Y-5080000I-50000J0D01*
G01*
X11226000Y-5334000D02*
G75*
G03*
X11226000Y-5334000I-50000J0D01*
G01*
X11226000Y-5588000D02*
G75*
G03*
X11226000Y-5588000I-50000J0D01*
G01*
X11416500Y-8699500D02*
G75*
G03*
X11416500Y-8699500I-50000J0D01*
G01*
X11416500Y-8953500D02*
G75*
G03*
X11416500Y-8953500I-50000J0D01*
G01*
X11670500Y-8699500D02*
G75*
G03*
X11670500Y-8699500I-50000J0D01*
G01*
X11670500Y-8953500D02*
G75*
G03*
X11670500Y-8953500I-50000J0D01*
G01*
X11924500Y-8699500D02*
G75*
G03*
X11924500Y-8699500I-50000J0D01*
G01*
X11924500Y-8953500D02*
G75*
G03*
X11924500Y-8953500I-50000J0D01*
G01*
X12178500Y-8699500D02*
G75*
G03*
X12178500Y-8699500I-50000J0D01*
G01*
X12178500Y-8953500D02*
G75*
G03*
X12178500Y-8953500I-50000J0D01*
G01*
X12432500Y-8699500D02*
G75*
G03*
X12432500Y-8699500I-50000J0D01*
G01*
X12432500Y-8953500D02*
G75*
G03*
X12432500Y-8953500I-50000J0D01*
G01*
X12495500Y-5081500D02*
G75*
G03*
X12495500Y-5081500I-50000J0D01*
G01*
X12495500Y-5335500D02*
G75*
G03*
X12495500Y-5335500I-50000J0D01*
G01*
X12495500Y-5589500D02*
G75*
G03*
X12495500Y-5589500I-50000J0D01*
G01*
X12686500Y-8699500D02*
G75*
G03*
X12686500Y-8699500I-50000J0D01*
G01*
X12686500Y-8953500D02*
G75*
G03*
X12686500Y-8953500I-50000J0D01*
G01*
X12749500Y-5081500D02*
G75*
G03*
X12749500Y-5081500I-50000J0D01*
G01*
X12749500Y-5335500D02*
G75*
G03*
X12749500Y-5335500I-50000J0D01*
G01*
X12749500Y-5589500D02*
G75*
G03*
X12749500Y-5589500I-50000J0D01*
G01*
X12940500Y-7620000D02*
G75*
G03*
X12940500Y-7620000I-50000J0D01*
G01*
X12940500Y-8699500D02*
G75*
G03*
X12940500Y-8699500I-50000J0D01*
G01*
X12940500Y-8953500D02*
G75*
G03*
X12940500Y-8953500I-50000J0D01*
G01*
X13194500Y-8699500D02*
G75*
G03*
X13194500Y-8699500I-50000J0D01*
G01*
X13194500Y-8953500D02*
G75*
G03*
X13194500Y-8953500I-50000J0D01*
G01*
X13448500Y-8699500D02*
G75*
G03*
X13448500Y-8699500I-50000J0D01*
G01*
X13448500Y-8953500D02*
G75*
G03*
X13448500Y-8953500I-50000J0D01*
G01*
X13702500Y-8699500D02*
G75*
G03*
X13702500Y-8699500I-50000J0D01*
G01*
X13702500Y-8953500D02*
G75*
G03*
X13702500Y-8953500I-50000J0D01*
G01*
X13956500Y-8699500D02*
G75*
G03*
X13956500Y-8699500I-50000J0D01*
G01*
X13956500Y-8953500D02*
G75*
G03*
X13956500Y-8953500I-50000J0D01*
G01*
X14019500Y-5081500D02*
G75*
G03*
X14019500Y-5081500I-50000J0D01*
G01*
X14019500Y-5335500D02*
G75*
G03*
X14019500Y-5335500I-50000J0D01*
G01*
X14019500Y-5589500D02*
G75*
G03*
X14019500Y-5589500I-50000J0D01*
G01*
X14210500Y-8699500D02*
G75*
G03*
X14210500Y-8699500I-50000J0D01*
G01*
X14210500Y-8953500D02*
G75*
G03*
X14210500Y-8953500I-50000J0D01*
G01*
X14273500Y-5081500D02*
G75*
G03*
X14273500Y-5081500I-50000J0D01*
G01*
X14273500Y-5335500D02*
G75*
G03*
X14273500Y-5335500I-50000J0D01*
G01*
X14273500Y-5589500D02*
G75*
G03*
X14273500Y-5589500I-50000J0D01*
G01*
X14464500Y-8699500D02*
G75*
G03*
X14464500Y-8699500I-50000J0D01*
G01*
X14464500Y-8953500D02*
G75*
G03*
X14464500Y-8953500I-50000J0D01*
G01*
X14718500Y-8699500D02*
G75*
G03*
X14718500Y-8699500I-50000J0D01*
G01*
X14718500Y-8953500D02*
G75*
G03*
X14718500Y-8953500I-50000J0D01*
G01*
X14972500Y-8699500D02*
G75*
G03*
X14972500Y-8699500I-50000J0D01*
G01*
X14972500Y-8953500D02*
G75*
G03*
X14972500Y-8953500I-50000J0D01*
G01*
X15226500Y-8699500D02*
G75*
G03*
X15226500Y-8699500I-50000J0D01*
G01*
X15226500Y-8953500D02*
G75*
G03*
X15226500Y-8953500I-50000J0D01*
G01*
X15480500Y-8699500D02*
G75*
G03*
X15480500Y-8699500I-50000J0D01*
G01*
X15480500Y-8953500D02*
G75*
G03*
X15480500Y-8953500I-50000J0D01*
G01*
X15543500Y-5081500D02*
G75*
G03*
X15543500Y-5081500I-50000J0D01*
G01*
X15543500Y-5335500D02*
G75*
G03*
X15543500Y-5335500I-50000J0D01*
G01*
X15543500Y-5589500D02*
G75*
G03*
X15543500Y-5589500I-50000J0D01*
G01*
X15797500Y-5081500D02*
G75*
G03*
X15797500Y-5081500I-50000J0D01*
G01*
X15797500Y-5335500D02*
G75*
G03*
X15797500Y-5335500I-50000J0D01*
G01*
X15797500Y-5589500D02*
G75*
G03*
X15797500Y-5589500I-50000J0D01*
G01*
X15798000Y-6350000D02*
G75*
G03*
X15798000Y-6350000I-50000J0D01*
G01*
D14*
X9461500Y-7575500D02*
X9461500Y-7695500D01*
X9401500Y-7635500D02*
X9521500Y-7635500D01*
X9461500Y-7925500D02*
X9461500Y-8045500D01*
X9401500Y-7985500D02*
X9521500Y-7985500D01*
D11*
X9333119Y-9522976D02*
X9333119Y-9322976D01*
X9380738Y-9322976D01*
X9409310Y-9332500D01*
X9428357Y-9351548D01*
X9437881Y-9370595D01*
X9447405Y-9408690D01*
X9447405Y-9437262D01*
X9437881Y-9475357D01*
X9428357Y-9494405D01*
X9409310Y-9513452D01*
X9380738Y-9522976D01*
X9333119Y-9522976D01*
X9533119Y-9522976D02*
X9533119Y-9389643D01*
X9533119Y-9427738D02*
X9542643Y-9408690D01*
X9552167Y-9399167D01*
X9571214Y-9389643D01*
X9590262Y-9389643D01*
X9656929Y-9522976D02*
X9656929Y-9389643D01*
X9656929Y-9322976D02*
X9647405Y-9332500D01*
X9656929Y-9342024D01*
X9666452Y-9332500D01*
X9656929Y-9322976D01*
X9656929Y-9342024D01*
X9780738Y-9522976D02*
X9761690Y-9513452D01*
X9752167Y-9494405D01*
X9752167Y-9322976D01*
X9885500Y-9522976D02*
X9866452Y-9513452D01*
X9856929Y-9494405D01*
X9856929Y-9322976D01*
X10114071Y-9522976D02*
X10114071Y-9322976D01*
X10180738Y-9465833D01*
X10247405Y-9322976D01*
X10247405Y-9522976D01*
X10428357Y-9522976D02*
X10428357Y-9418214D01*
X10418833Y-9399167D01*
X10399786Y-9389643D01*
X10361690Y-9389643D01*
X10342643Y-9399167D01*
X10428357Y-9513452D02*
X10409310Y-9522976D01*
X10361690Y-9522976D01*
X10342643Y-9513452D01*
X10333119Y-9494405D01*
X10333119Y-9475357D01*
X10342643Y-9456310D01*
X10361690Y-9446786D01*
X10409310Y-9446786D01*
X10428357Y-9437262D01*
X10523595Y-9389643D02*
X10523595Y-9589643D01*
X10523595Y-9399167D02*
X10542643Y-9389643D01*
X10580738Y-9389643D01*
X10599786Y-9399167D01*
X10609310Y-9408690D01*
X10618833Y-9427738D01*
X10618833Y-9484881D01*
X10609310Y-9503929D01*
X10599786Y-9513452D01*
X10580738Y-9522976D01*
X10542643Y-9522976D01*
X10523595Y-9513452D01*
X10704548Y-9503929D02*
X10714071Y-9513452D01*
X10704548Y-9522976D01*
X10695024Y-9513452D01*
X10704548Y-9503929D01*
X10704548Y-9522976D01*
X10704548Y-9399167D02*
X10714071Y-9408690D01*
X10704548Y-9418214D01*
X10695024Y-9408690D01*
X10704548Y-9399167D01*
X10704548Y-9418214D01*
D12*
X9035500Y-9832500D02*
X9075500Y-9872500D01*
X9075500Y-9832500D02*
X9035500Y-9872500D01*
D11*
X9371214Y-9742976D02*
X9390262Y-9742976D01*
X9409310Y-9752500D01*
X9418833Y-9762024D01*
X9428357Y-9781071D01*
X9437881Y-9819167D01*
X9437881Y-9866786D01*
X9428357Y-9904881D01*
X9418833Y-9923929D01*
X9409310Y-9933452D01*
X9390262Y-9942976D01*
X9371214Y-9942976D01*
X9352167Y-9933452D01*
X9342643Y-9923929D01*
X9333119Y-9904881D01*
X9323595Y-9866786D01*
X9323595Y-9819167D01*
X9333119Y-9781071D01*
X9342643Y-9762024D01*
X9352167Y-9752500D01*
X9371214Y-9742976D01*
X9523595Y-9923929D02*
X9533119Y-9933452D01*
X9523595Y-9942976D01*
X9514071Y-9933452D01*
X9523595Y-9923929D01*
X9523595Y-9942976D01*
X9704548Y-9809643D02*
X9704548Y-9942976D01*
X9656929Y-9733452D02*
X9609310Y-9876310D01*
X9733119Y-9876310D01*
X9847405Y-9742976D02*
X9866452Y-9742976D01*
X9885500Y-9752500D01*
X9895024Y-9762024D01*
X9904548Y-9781071D01*
X9914071Y-9819167D01*
X9914071Y-9866786D01*
X9904548Y-9904881D01*
X9895024Y-9923929D01*
X9885500Y-9933452D01*
X9866452Y-9942976D01*
X9847405Y-9942976D01*
X9828357Y-9933452D01*
X9818833Y-9923929D01*
X9809310Y-9904881D01*
X9799786Y-9866786D01*
X9799786Y-9819167D01*
X9809310Y-9781071D01*
X9818833Y-9762024D01*
X9828357Y-9752500D01*
X9847405Y-9742976D01*
X10037881Y-9742976D02*
X10056929Y-9742976D01*
X10075976Y-9752500D01*
X10085500Y-9762024D01*
X10095024Y-9781071D01*
X10104548Y-9819167D01*
X10104548Y-9866786D01*
X10095024Y-9904881D01*
X10085500Y-9923929D01*
X10075976Y-9933452D01*
X10056929Y-9942976D01*
X10037881Y-9942976D01*
X10018833Y-9933452D01*
X10009310Y-9923929D01*
X9999786Y-9904881D01*
X9990262Y-9866786D01*
X9990262Y-9819167D01*
X9999786Y-9781071D01*
X10009310Y-9762024D01*
X10018833Y-9752500D01*
X10037881Y-9742976D01*
X10190262Y-9942976D02*
X10190262Y-9809643D01*
X10190262Y-9828690D02*
X10199786Y-9819167D01*
X10218833Y-9809643D01*
X10247405Y-9809643D01*
X10266452Y-9819167D01*
X10275976Y-9838214D01*
X10275976Y-9942976D01*
X10275976Y-9838214D02*
X10285500Y-9819167D01*
X10304548Y-9809643D01*
X10333119Y-9809643D01*
X10352167Y-9819167D01*
X10361690Y-9838214D01*
X10361690Y-9942976D01*
X10456929Y-9942976D02*
X10456929Y-9809643D01*
X10456929Y-9828690D02*
X10466452Y-9819167D01*
X10485500Y-9809643D01*
X10514071Y-9809643D01*
X10533119Y-9819167D01*
X10542643Y-9838214D01*
X10542643Y-9942976D01*
X10542643Y-9838214D02*
X10552167Y-9819167D01*
X10571214Y-9809643D01*
X10599786Y-9809643D01*
X10618833Y-9819167D01*
X10628357Y-9838214D01*
X10628357Y-9942976D01*
X11018833Y-9733452D02*
X10847405Y-9990595D01*
X11275976Y-9742976D02*
X11295024Y-9742976D01*
X11314071Y-9752500D01*
X11323595Y-9762024D01*
X11333119Y-9781071D01*
X11342643Y-9819167D01*
X11342643Y-9866786D01*
X11333119Y-9904881D01*
X11323595Y-9923929D01*
X11314071Y-9933452D01*
X11295024Y-9942976D01*
X11275976Y-9942976D01*
X11256928Y-9933452D01*
X11247405Y-9923929D01*
X11237881Y-9904881D01*
X11228357Y-9866786D01*
X11228357Y-9819167D01*
X11237881Y-9781071D01*
X11247405Y-9762024D01*
X11256928Y-9752500D01*
X11275976Y-9742976D01*
X11428357Y-9923929D02*
X11437881Y-9933452D01*
X11428357Y-9942976D01*
X11418833Y-9933452D01*
X11428357Y-9923929D01*
X11428357Y-9942976D01*
X11561690Y-9742976D02*
X11580738Y-9742976D01*
X11599786Y-9752500D01*
X11609309Y-9762024D01*
X11618833Y-9781071D01*
X11628357Y-9819167D01*
X11628357Y-9866786D01*
X11618833Y-9904881D01*
X11609309Y-9923929D01*
X11599786Y-9933452D01*
X11580738Y-9942976D01*
X11561690Y-9942976D01*
X11542643Y-9933452D01*
X11533119Y-9923929D01*
X11523595Y-9904881D01*
X11514071Y-9866786D01*
X11514071Y-9819167D01*
X11523595Y-9781071D01*
X11533119Y-9762024D01*
X11542643Y-9752500D01*
X11561690Y-9742976D01*
X11818833Y-9942976D02*
X11704548Y-9942976D01*
X11761690Y-9942976D02*
X11761690Y-9742976D01*
X11742643Y-9771548D01*
X11723595Y-9790595D01*
X11704548Y-9800119D01*
X11999786Y-9742976D02*
X11904548Y-9742976D01*
X11895024Y-9838214D01*
X11904548Y-9828690D01*
X11923595Y-9819167D01*
X11971214Y-9819167D01*
X11990262Y-9828690D01*
X11999786Y-9838214D01*
X12009309Y-9857262D01*
X12009309Y-9904881D01*
X11999786Y-9923929D01*
X11990262Y-9933452D01*
X11971214Y-9942976D01*
X11923595Y-9942976D01*
X11904548Y-9933452D01*
X11895024Y-9923929D01*
X12075976Y-9742976D02*
X12209309Y-9742976D01*
X12123595Y-9942976D01*
X12275976Y-9742976D02*
X12275976Y-9781071D01*
X12352167Y-9742976D02*
X12352167Y-9781071D01*
X12647405Y-10019167D02*
X12637881Y-10009643D01*
X12618833Y-9981071D01*
X12609309Y-9962024D01*
X12599786Y-9933452D01*
X12590262Y-9885833D01*
X12590262Y-9847738D01*
X12599786Y-9800119D01*
X12609309Y-9771548D01*
X12618833Y-9752500D01*
X12637881Y-9723929D01*
X12647405Y-9714405D01*
X12733119Y-9942976D02*
X12771214Y-9942976D01*
X12790262Y-9933452D01*
X12799786Y-9923929D01*
X12818833Y-9895357D01*
X12828357Y-9857262D01*
X12828357Y-9781071D01*
X12818833Y-9762024D01*
X12809309Y-9752500D01*
X12790262Y-9742976D01*
X12752167Y-9742976D01*
X12733119Y-9752500D01*
X12723595Y-9762024D01*
X12714071Y-9781071D01*
X12714071Y-9828690D01*
X12723595Y-9847738D01*
X12733119Y-9857262D01*
X12752167Y-9866786D01*
X12790262Y-9866786D01*
X12809309Y-9857262D01*
X12818833Y-9847738D01*
X12828357Y-9828690D01*
X12923595Y-9942976D02*
X12961690Y-9942976D01*
X12980738Y-9933452D01*
X12990262Y-9923929D01*
X13009309Y-9895357D01*
X13018833Y-9857262D01*
X13018833Y-9781071D01*
X13009309Y-9762024D01*
X12999786Y-9752500D01*
X12980738Y-9742976D01*
X12942643Y-9742976D01*
X12923595Y-9752500D01*
X12914071Y-9762024D01*
X12904548Y-9781071D01*
X12904548Y-9828690D01*
X12914071Y-9847738D01*
X12923595Y-9857262D01*
X12942643Y-9866786D01*
X12980738Y-9866786D01*
X12999786Y-9857262D01*
X13009309Y-9847738D01*
X13018833Y-9828690D01*
X13256928Y-9942976D02*
X13256928Y-9742976D01*
X13342643Y-9942976D02*
X13342643Y-9838214D01*
X13333119Y-9819167D01*
X13314071Y-9809643D01*
X13285500Y-9809643D01*
X13266452Y-9819167D01*
X13256928Y-9828690D01*
X13466452Y-9942976D02*
X13447405Y-9933452D01*
X13437881Y-9923929D01*
X13428357Y-9904881D01*
X13428357Y-9847738D01*
X13437881Y-9828690D01*
X13447405Y-9819167D01*
X13466452Y-9809643D01*
X13495024Y-9809643D01*
X13514071Y-9819167D01*
X13523595Y-9828690D01*
X13533119Y-9847738D01*
X13533119Y-9904881D01*
X13523595Y-9923929D01*
X13514071Y-9933452D01*
X13495024Y-9942976D01*
X13466452Y-9942976D01*
X13647405Y-9942976D02*
X13628357Y-9933452D01*
X13618833Y-9914405D01*
X13618833Y-9742976D01*
X13799786Y-9933452D02*
X13780738Y-9942976D01*
X13742643Y-9942976D01*
X13723595Y-9933452D01*
X13714071Y-9914405D01*
X13714071Y-9838214D01*
X13723595Y-9819167D01*
X13742643Y-9809643D01*
X13780738Y-9809643D01*
X13799786Y-9819167D01*
X13809309Y-9838214D01*
X13809309Y-9857262D01*
X13714071Y-9876310D01*
X13885500Y-9933452D02*
X13904548Y-9942976D01*
X13942643Y-9942976D01*
X13961690Y-9933452D01*
X13971214Y-9914405D01*
X13971214Y-9904881D01*
X13961690Y-9885833D01*
X13942643Y-9876310D01*
X13914071Y-9876310D01*
X13895024Y-9866786D01*
X13885500Y-9847738D01*
X13885500Y-9838214D01*
X13895024Y-9819167D01*
X13914071Y-9809643D01*
X13942643Y-9809643D01*
X13961690Y-9819167D01*
X14037881Y-10019167D02*
X14047405Y-10009643D01*
X14066452Y-9981071D01*
X14075976Y-9962024D01*
X14085500Y-9933452D01*
X14095024Y-9885833D01*
X14095024Y-9847738D01*
X14085500Y-9800119D01*
X14075976Y-9771548D01*
X14066452Y-9752500D01*
X14047405Y-9723929D01*
X14037881Y-9714405D01*
D13*
X9075500Y-10116500D02*
G75*
G03*
X9075500Y-10116500I-50000J0D01*
G01*
D11*
X9437881Y-10206976D02*
X9323595Y-10206976D01*
X9380738Y-10206976D02*
X9380738Y-10006976D01*
X9361690Y-10035548D01*
X9342643Y-10054595D01*
X9323595Y-10064119D01*
X9523595Y-10187929D02*
X9533119Y-10197452D01*
X9523595Y-10206976D01*
X9514071Y-10197452D01*
X9523595Y-10187929D01*
X9523595Y-10206976D01*
X9656929Y-10006976D02*
X9675976Y-10006976D01*
X9695024Y-10016500D01*
X9704548Y-10026024D01*
X9714071Y-10045071D01*
X9723595Y-10083167D01*
X9723595Y-10130786D01*
X9714071Y-10168881D01*
X9704548Y-10187929D01*
X9695024Y-10197452D01*
X9675976Y-10206976D01*
X9656929Y-10206976D01*
X9637881Y-10197452D01*
X9628357Y-10187929D01*
X9618833Y-10168881D01*
X9609310Y-10130786D01*
X9609310Y-10083167D01*
X9618833Y-10045071D01*
X9628357Y-10026024D01*
X9637881Y-10016500D01*
X9656929Y-10006976D01*
X9847405Y-10006976D02*
X9866452Y-10006976D01*
X9885500Y-10016500D01*
X9895024Y-10026024D01*
X9904548Y-10045071D01*
X9914071Y-10083167D01*
X9914071Y-10130786D01*
X9904548Y-10168881D01*
X9895024Y-10187929D01*
X9885500Y-10197452D01*
X9866452Y-10206976D01*
X9847405Y-10206976D01*
X9828357Y-10197452D01*
X9818833Y-10187929D01*
X9809310Y-10168881D01*
X9799786Y-10130786D01*
X9799786Y-10083167D01*
X9809310Y-10045071D01*
X9818833Y-10026024D01*
X9828357Y-10016500D01*
X9847405Y-10006976D01*
X10037881Y-10006976D02*
X10056929Y-10006976D01*
X10075976Y-10016500D01*
X10085500Y-10026024D01*
X10095024Y-10045071D01*
X10104548Y-10083167D01*
X10104548Y-10130786D01*
X10095024Y-10168881D01*
X10085500Y-10187929D01*
X10075976Y-10197452D01*
X10056929Y-10206976D01*
X10037881Y-10206976D01*
X10018833Y-10197452D01*
X10009310Y-10187929D01*
X9999786Y-10168881D01*
X9990262Y-10130786D01*
X9990262Y-10083167D01*
X9999786Y-10045071D01*
X10009310Y-10026024D01*
X10018833Y-10016500D01*
X10037881Y-10006976D01*
X10190262Y-10206976D02*
X10190262Y-10073643D01*
X10190262Y-10092690D02*
X10199786Y-10083167D01*
X10218833Y-10073643D01*
X10247405Y-10073643D01*
X10266452Y-10083167D01*
X10275976Y-10102214D01*
X10275976Y-10206976D01*
X10275976Y-10102214D02*
X10285500Y-10083167D01*
X10304548Y-10073643D01*
X10333119Y-10073643D01*
X10352167Y-10083167D01*
X10361690Y-10102214D01*
X10361690Y-10206976D01*
X10456929Y-10206976D02*
X10456929Y-10073643D01*
X10456929Y-10092690D02*
X10466452Y-10083167D01*
X10485500Y-10073643D01*
X10514071Y-10073643D01*
X10533119Y-10083167D01*
X10542643Y-10102214D01*
X10542643Y-10206976D01*
X10542643Y-10102214D02*
X10552167Y-10083167D01*
X10571214Y-10073643D01*
X10599786Y-10073643D01*
X10618833Y-10083167D01*
X10628357Y-10102214D01*
X10628357Y-10206976D01*
X11018833Y-9997452D02*
X10847405Y-10254595D01*
X11275976Y-10006976D02*
X11295024Y-10006976D01*
X11314071Y-10016500D01*
X11323595Y-10026024D01*
X11333119Y-10045071D01*
X11342643Y-10083167D01*
X11342643Y-10130786D01*
X11333119Y-10168881D01*
X11323595Y-10187929D01*
X11314071Y-10197452D01*
X11295024Y-10206976D01*
X11275976Y-10206976D01*
X11256928Y-10197452D01*
X11247405Y-10187929D01*
X11237881Y-10168881D01*
X11228357Y-10130786D01*
X11228357Y-10083167D01*
X11237881Y-10045071D01*
X11247405Y-10026024D01*
X11256928Y-10016500D01*
X11275976Y-10006976D01*
X11428357Y-10187929D02*
X11437881Y-10197452D01*
X11428357Y-10206976D01*
X11418833Y-10197452D01*
X11428357Y-10187929D01*
X11428357Y-10206976D01*
X11561690Y-10006976D02*
X11580738Y-10006976D01*
X11599786Y-10016500D01*
X11609309Y-10026024D01*
X11618833Y-10045071D01*
X11628357Y-10083167D01*
X11628357Y-10130786D01*
X11618833Y-10168881D01*
X11609309Y-10187929D01*
X11599786Y-10197452D01*
X11580738Y-10206976D01*
X11561690Y-10206976D01*
X11542643Y-10197452D01*
X11533119Y-10187929D01*
X11523595Y-10168881D01*
X11514071Y-10130786D01*
X11514071Y-10083167D01*
X11523595Y-10045071D01*
X11533119Y-10026024D01*
X11542643Y-10016500D01*
X11561690Y-10006976D01*
X11695024Y-10006976D02*
X11818833Y-10006976D01*
X11752167Y-10083167D01*
X11780738Y-10083167D01*
X11799786Y-10092690D01*
X11809309Y-10102214D01*
X11818833Y-10121262D01*
X11818833Y-10168881D01*
X11809309Y-10187929D01*
X11799786Y-10197452D01*
X11780738Y-10206976D01*
X11723595Y-10206976D01*
X11704548Y-10197452D01*
X11695024Y-10187929D01*
X11914071Y-10206976D02*
X11952167Y-10206976D01*
X11971214Y-10197452D01*
X11980738Y-10187929D01*
X11999786Y-10159357D01*
X12009309Y-10121262D01*
X12009309Y-10045071D01*
X11999786Y-10026024D01*
X11990262Y-10016500D01*
X11971214Y-10006976D01*
X11933119Y-10006976D01*
X11914071Y-10016500D01*
X11904548Y-10026024D01*
X11895024Y-10045071D01*
X11895024Y-10092690D01*
X11904548Y-10111738D01*
X11914071Y-10121262D01*
X11933119Y-10130786D01*
X11971214Y-10130786D01*
X11990262Y-10121262D01*
X11999786Y-10111738D01*
X12009309Y-10092690D01*
X12180738Y-10073643D02*
X12180738Y-10206976D01*
X12133119Y-9997452D02*
X12085500Y-10140310D01*
X12209309Y-10140310D01*
X12275976Y-10006976D02*
X12275976Y-10045071D01*
X12352167Y-10006976D02*
X12352167Y-10045071D01*
X12647405Y-10283167D02*
X12637881Y-10273643D01*
X12618833Y-10245071D01*
X12609309Y-10226024D01*
X12599786Y-10197452D01*
X12590262Y-10149833D01*
X12590262Y-10111738D01*
X12599786Y-10064119D01*
X12609309Y-10035548D01*
X12618833Y-10016500D01*
X12637881Y-9987929D01*
X12647405Y-9978405D01*
X12704548Y-10006976D02*
X12837881Y-10006976D01*
X12752167Y-10206976D01*
X12895024Y-10006976D02*
X13018833Y-10006976D01*
X12952167Y-10083167D01*
X12980738Y-10083167D01*
X12999786Y-10092690D01*
X13009309Y-10102214D01*
X13018833Y-10121262D01*
X13018833Y-10168881D01*
X13009309Y-10187929D01*
X12999786Y-10197452D01*
X12980738Y-10206976D01*
X12923595Y-10206976D01*
X12904548Y-10197452D01*
X12895024Y-10187929D01*
X13256928Y-10206976D02*
X13256928Y-10006976D01*
X13342643Y-10206976D02*
X13342643Y-10102214D01*
X13333119Y-10083167D01*
X13314071Y-10073643D01*
X13285500Y-10073643D01*
X13266452Y-10083167D01*
X13256928Y-10092690D01*
X13466452Y-10206976D02*
X13447405Y-10197452D01*
X13437881Y-10187929D01*
X13428357Y-10168881D01*
X13428357Y-10111738D01*
X13437881Y-10092690D01*
X13447405Y-10083167D01*
X13466452Y-10073643D01*
X13495024Y-10073643D01*
X13514071Y-10083167D01*
X13523595Y-10092690D01*
X13533119Y-10111738D01*
X13533119Y-10168881D01*
X13523595Y-10187929D01*
X13514071Y-10197452D01*
X13495024Y-10206976D01*
X13466452Y-10206976D01*
X13647405Y-10206976D02*
X13628357Y-10197452D01*
X13618833Y-10178405D01*
X13618833Y-10006976D01*
X13799786Y-10197452D02*
X13780738Y-10206976D01*
X13742643Y-10206976D01*
X13723595Y-10197452D01*
X13714071Y-10178405D01*
X13714071Y-10102214D01*
X13723595Y-10083167D01*
X13742643Y-10073643D01*
X13780738Y-10073643D01*
X13799786Y-10083167D01*
X13809309Y-10102214D01*
X13809309Y-10121262D01*
X13714071Y-10140310D01*
X13885500Y-10197452D02*
X13904548Y-10206976D01*
X13942643Y-10206976D01*
X13961690Y-10197452D01*
X13971214Y-10178405D01*
X13971214Y-10168881D01*
X13961690Y-10149833D01*
X13942643Y-10140310D01*
X13914071Y-10140310D01*
X13895024Y-10130786D01*
X13885500Y-10111738D01*
X13885500Y-10102214D01*
X13895024Y-10083167D01*
X13914071Y-10073643D01*
X13942643Y-10073643D01*
X13961690Y-10083167D01*
X14037881Y-10283167D02*
X14047405Y-10273643D01*
X14066452Y-10245071D01*
X14075976Y-10226024D01*
X14085500Y-10197452D01*
X14095024Y-10149833D01*
X14095024Y-10111738D01*
X14085500Y-10064119D01*
X14075976Y-10035548D01*
X14066452Y-10016500D01*
X14047405Y-9987929D01*
X14037881Y-9978405D01*
D14*
X9015500Y-10320500D02*
X9015500Y-10440500D01*
X8955500Y-10380500D02*
X9075500Y-10380500D01*
D11*
X9437881Y-10470976D02*
X9323595Y-10470976D01*
X9380738Y-10470976D02*
X9380738Y-10270976D01*
X9361690Y-10299548D01*
X9342643Y-10318595D01*
X9323595Y-10328119D01*
X9523595Y-10451929D02*
X9533119Y-10461452D01*
X9523595Y-10470976D01*
X9514071Y-10461452D01*
X9523595Y-10451929D01*
X9523595Y-10470976D01*
X9609310Y-10290024D02*
X9618833Y-10280500D01*
X9637881Y-10270976D01*
X9685500Y-10270976D01*
X9704548Y-10280500D01*
X9714071Y-10290024D01*
X9723595Y-10309071D01*
X9723595Y-10328119D01*
X9714071Y-10356690D01*
X9599786Y-10470976D01*
X9723595Y-10470976D01*
X9847405Y-10270976D02*
X9866452Y-10270976D01*
X9885500Y-10280500D01*
X9895024Y-10290024D01*
X9904548Y-10309071D01*
X9914071Y-10347167D01*
X9914071Y-10394786D01*
X9904548Y-10432881D01*
X9895024Y-10451929D01*
X9885500Y-10461452D01*
X9866452Y-10470976D01*
X9847405Y-10470976D01*
X9828357Y-10461452D01*
X9818833Y-10451929D01*
X9809310Y-10432881D01*
X9799786Y-10394786D01*
X9799786Y-10347167D01*
X9809310Y-10309071D01*
X9818833Y-10290024D01*
X9828357Y-10280500D01*
X9847405Y-10270976D01*
X10037881Y-10270976D02*
X10056929Y-10270976D01*
X10075976Y-10280500D01*
X10085500Y-10290024D01*
X10095024Y-10309071D01*
X10104548Y-10347167D01*
X10104548Y-10394786D01*
X10095024Y-10432881D01*
X10085500Y-10451929D01*
X10075976Y-10461452D01*
X10056929Y-10470976D01*
X10037881Y-10470976D01*
X10018833Y-10461452D01*
X10009310Y-10451929D01*
X9999786Y-10432881D01*
X9990262Y-10394786D01*
X9990262Y-10347167D01*
X9999786Y-10309071D01*
X10009310Y-10290024D01*
X10018833Y-10280500D01*
X10037881Y-10270976D01*
X10190262Y-10470976D02*
X10190262Y-10337643D01*
X10190262Y-10356690D02*
X10199786Y-10347167D01*
X10218833Y-10337643D01*
X10247405Y-10337643D01*
X10266452Y-10347167D01*
X10275976Y-10366214D01*
X10275976Y-10470976D01*
X10275976Y-10366214D02*
X10285500Y-10347167D01*
X10304548Y-10337643D01*
X10333119Y-10337643D01*
X10352167Y-10347167D01*
X10361690Y-10366214D01*
X10361690Y-10470976D01*
X10456929Y-10470976D02*
X10456929Y-10337643D01*
X10456929Y-10356690D02*
X10466452Y-10347167D01*
X10485500Y-10337643D01*
X10514071Y-10337643D01*
X10533119Y-10347167D01*
X10542643Y-10366214D01*
X10542643Y-10470976D01*
X10542643Y-10366214D02*
X10552167Y-10347167D01*
X10571214Y-10337643D01*
X10599786Y-10337643D01*
X10618833Y-10347167D01*
X10628357Y-10366214D01*
X10628357Y-10470976D01*
X11018833Y-10261452D02*
X10847405Y-10518595D01*
X11275976Y-10270976D02*
X11295024Y-10270976D01*
X11314071Y-10280500D01*
X11323595Y-10290024D01*
X11333119Y-10309071D01*
X11342643Y-10347167D01*
X11342643Y-10394786D01*
X11333119Y-10432881D01*
X11323595Y-10451929D01*
X11314071Y-10461452D01*
X11295024Y-10470976D01*
X11275976Y-10470976D01*
X11256928Y-10461452D01*
X11247405Y-10451929D01*
X11237881Y-10432881D01*
X11228357Y-10394786D01*
X11228357Y-10347167D01*
X11237881Y-10309071D01*
X11247405Y-10290024D01*
X11256928Y-10280500D01*
X11275976Y-10270976D01*
X11428357Y-10451929D02*
X11437881Y-10461452D01*
X11428357Y-10470976D01*
X11418833Y-10461452D01*
X11428357Y-10451929D01*
X11428357Y-10470976D01*
X11561690Y-10270976D02*
X11580738Y-10270976D01*
X11599786Y-10280500D01*
X11609309Y-10290024D01*
X11618833Y-10309071D01*
X11628357Y-10347167D01*
X11628357Y-10394786D01*
X11618833Y-10432881D01*
X11609309Y-10451929D01*
X11599786Y-10461452D01*
X11580738Y-10470976D01*
X11561690Y-10470976D01*
X11542643Y-10461452D01*
X11533119Y-10451929D01*
X11523595Y-10432881D01*
X11514071Y-10394786D01*
X11514071Y-10347167D01*
X11523595Y-10309071D01*
X11533119Y-10290024D01*
X11542643Y-10280500D01*
X11561690Y-10270976D01*
X11799786Y-10337643D02*
X11799786Y-10470976D01*
X11752167Y-10261452D02*
X11704548Y-10404310D01*
X11828357Y-10404310D01*
X11885500Y-10270976D02*
X12018833Y-10270976D01*
X11933119Y-10470976D01*
X12085500Y-10290024D02*
X12095024Y-10280500D01*
X12114071Y-10270976D01*
X12161690Y-10270976D01*
X12180738Y-10280500D01*
X12190262Y-10290024D01*
X12199786Y-10309071D01*
X12199786Y-10328119D01*
X12190262Y-10356690D01*
X12075976Y-10470976D01*
X12199786Y-10470976D01*
X12275976Y-10270976D02*
X12275976Y-10309071D01*
X12352167Y-10270976D02*
X12352167Y-10309071D01*
X12647405Y-10547167D02*
X12637881Y-10537643D01*
X12618833Y-10509071D01*
X12609309Y-10490024D01*
X12599786Y-10461452D01*
X12590262Y-10413833D01*
X12590262Y-10375738D01*
X12599786Y-10328119D01*
X12609309Y-10299548D01*
X12618833Y-10280500D01*
X12637881Y-10251929D01*
X12647405Y-10242405D01*
X12714071Y-10290024D02*
X12723595Y-10280500D01*
X12742643Y-10270976D01*
X12790262Y-10270976D01*
X12809309Y-10280500D01*
X12818833Y-10290024D01*
X12828357Y-10309071D01*
X12828357Y-10328119D01*
X12818833Y-10356690D01*
X12704548Y-10470976D01*
X12828357Y-10470976D01*
X13066452Y-10470976D02*
X13066452Y-10270976D01*
X13152167Y-10470976D02*
X13152167Y-10366214D01*
X13142643Y-10347167D01*
X13123595Y-10337643D01*
X13095024Y-10337643D01*
X13075976Y-10347167D01*
X13066452Y-10356690D01*
X13275976Y-10470976D02*
X13256928Y-10461452D01*
X13247405Y-10451929D01*
X13237881Y-10432881D01*
X13237881Y-10375738D01*
X13247405Y-10356690D01*
X13256928Y-10347167D01*
X13275976Y-10337643D01*
X13304548Y-10337643D01*
X13323595Y-10347167D01*
X13333119Y-10356690D01*
X13342643Y-10375738D01*
X13342643Y-10432881D01*
X13333119Y-10451929D01*
X13323595Y-10461452D01*
X13304548Y-10470976D01*
X13275976Y-10470976D01*
X13456928Y-10470976D02*
X13437881Y-10461452D01*
X13428357Y-10442405D01*
X13428357Y-10270976D01*
X13609309Y-10461452D02*
X13590262Y-10470976D01*
X13552167Y-10470976D01*
X13533119Y-10461452D01*
X13523595Y-10442405D01*
X13523595Y-10366214D01*
X13533119Y-10347167D01*
X13552167Y-10337643D01*
X13590262Y-10337643D01*
X13609309Y-10347167D01*
X13618833Y-10366214D01*
X13618833Y-10385262D01*
X13523595Y-10404310D01*
X13695024Y-10461452D02*
X13714071Y-10470976D01*
X13752167Y-10470976D01*
X13771214Y-10461452D01*
X13780738Y-10442405D01*
X13780738Y-10432881D01*
X13771214Y-10413833D01*
X13752167Y-10404310D01*
X13723595Y-10404310D01*
X13704548Y-10394786D01*
X13695024Y-10375738D01*
X13695024Y-10366214D01*
X13704548Y-10347167D01*
X13723595Y-10337643D01*
X13752167Y-10337643D01*
X13771214Y-10347167D01*
X13847405Y-10547167D02*
X13856928Y-10537643D01*
X13875976Y-10509071D01*
X13885500Y-10490024D01*
X13895024Y-10461452D01*
X13904548Y-10413833D01*
X13904548Y-10375738D01*
X13895024Y-10328119D01*
X13885500Y-10299548D01*
X13875976Y-10280500D01*
X13856928Y-10251929D01*
X13847405Y-10242405D01*
M02*
