%TF.GenerationSoftware,KiCad,Pcbnew,(6.0.0)*%
%TF.CreationDate,2022-02-07T22:24:18-06:00*%
%TF.ProjectId,PiDRO_interface,50694452-4f5f-4696-9e74-657266616365,rev?*%
%TF.SameCoordinates,Original*%
%TF.FileFunction,Legend,Bot*%
%TF.FilePolarity,Positive*%
%FSLAX46Y46*%
G04 Gerber Fmt 4.6, Leading zero omitted, Abs format (unit mm)*
G04 Created by KiCad (PCBNEW (6.0.0)) date 2022-02-07 22:24:18*
%MOMM*%
%LPD*%
G01*
G04 APERTURE LIST*
%ADD10C,0.150000*%
%ADD11C,0.120000*%
G04 APERTURE END LIST*
D10*
%TO.C,J6*%
X130386666Y-82917261D02*
X130386666Y-83370833D01*
X130416904Y-83461547D01*
X130477380Y-83522023D01*
X130568095Y-83552261D01*
X130628571Y-83552261D01*
X129812142Y-82917261D02*
X129933095Y-82917261D01*
X129993571Y-82947500D01*
X130023809Y-82977738D01*
X130084285Y-83068452D01*
X130114523Y-83189404D01*
X130114523Y-83431309D01*
X130084285Y-83491785D01*
X130054047Y-83522023D01*
X129993571Y-83552261D01*
X129872619Y-83552261D01*
X129812142Y-83522023D01*
X129781904Y-83491785D01*
X129751666Y-83431309D01*
X129751666Y-83280119D01*
X129781904Y-83219642D01*
X129812142Y-83189404D01*
X129872619Y-83159166D01*
X129993571Y-83159166D01*
X130054047Y-83189404D01*
X130084285Y-83219642D01*
X130114523Y-83280119D01*
D11*
X97615000Y-111765000D02*
G75*
G03*
X100675000Y-114825000I3059999J-1D01*
G01*
X159675000Y-114825000D02*
G75*
G03*
X162735000Y-111765000I1J3059999D01*
G01*
X100675000Y-84705000D02*
G75*
G03*
X97615000Y-87765000I-1J-3059999D01*
G01*
X162735000Y-87765000D02*
G75*
G03*
X159675000Y-84705000I-3059999J1D01*
G01*
X104715000Y-88265000D02*
X107315000Y-88265000D01*
X162735000Y-91205000D02*
X162735000Y-87765000D01*
X135015000Y-116625000D02*
X135015000Y-114825000D01*
X97615000Y-87765000D02*
X97615000Y-111765000D01*
X115785000Y-114825000D02*
X115785000Y-115525000D01*
X107315000Y-88265000D02*
X107315000Y-90865000D01*
X155635000Y-85665000D02*
X155635000Y-90865000D01*
X104365000Y-115525000D02*
X104365000Y-114825000D01*
X104715000Y-89535000D02*
X104715000Y-90865000D01*
X155735000Y-114825000D02*
X155735000Y-116625000D01*
X162735000Y-108325000D02*
X162735000Y-111765000D01*
X143135000Y-116625000D02*
X135015000Y-116625000D01*
X159675000Y-84705000D02*
X100675000Y-84705000D01*
X147615000Y-116625000D02*
X147615000Y-114825000D01*
X159675000Y-114825000D02*
X155735000Y-114825000D01*
X107315000Y-90865000D02*
X155635000Y-90865000D01*
X115785000Y-115525000D02*
X104365000Y-115525000D01*
X104365000Y-114825000D02*
X100675000Y-114825000D01*
X135015000Y-114825000D02*
X115785000Y-114825000D01*
X155735000Y-116625000D02*
X147615000Y-116625000D01*
X162735000Y-91205000D02*
X163935000Y-91205000D01*
X104715000Y-85665000D02*
X155635000Y-85665000D01*
X104715000Y-85665000D02*
X104715000Y-88265000D01*
X163935000Y-108325000D02*
X162735000Y-108325000D01*
X147615000Y-114825000D02*
X143135000Y-114825000D01*
X104715000Y-90865000D02*
X106045000Y-90865000D01*
X143135000Y-114825000D02*
X143135000Y-116625000D01*
X163935000Y-91205000D02*
X163935000Y-108325000D01*
%TD*%
M02*
