M48
; DRILL file {KiCad (6.0.0)} date Mon Feb  7 22:24:20 2022
; FORMAT={-:-/ absolute / inch / decimal}
; #@! TF.CreationDate,2022-02-07T22:24:20-06:00
; #@! TF.GenerationSoftware,Kicad,Pcbnew,(6.0.0)
; #@! TF.FileFunction,Plated,1,2,PTH
FMAT,2
INCH
; #@! TA.AperFunction,Plated,PTH,ViaDrill
T1C0.0157
; #@! TA.AperFunction,Plated,PTH,ComponentDrill
T2C0.0394
; #@! TA.AperFunction,Plated,PTH,ComponentDrill
T3C0.0472
%
G90
G05
T1
X3.625Y-2.25
X3.625Y-2.325
X3.8Y-2.5
X3.825Y-2.275
X3.83Y-2.75
X3.9Y-2.35
X3.95Y-1.95
X3.95Y-2.15
X3.975Y-2.5
X3.975Y-2.6
X4.0Y-2.7
X4.1Y-2.65
X4.1Y-2.75
X4.16Y-2.285
X4.275Y-2.425
X4.275Y-3.225
X4.305Y-2.95
X4.325Y-2.525
X4.325Y-3.325
X4.335Y-2.75
X4.365Y-2.315
X4.375Y-3.225
X4.425Y-2.525
X4.425Y-2.75
X4.45Y-2.375
X4.48Y-2.95
X4.5Y-3.12
X4.525Y-2.175
X4.55Y-1.95
X4.565Y-2.375
X4.565Y-3.235
X4.575Y-3.325
X4.605Y-2.175
X4.65Y-2.605
X4.65Y-2.78
X4.65Y-2.95
X4.7Y-2.075
X4.7Y-2.175
X4.7Y-2.465
X4.76Y-3.12
X4.775Y-2.805
X4.79Y-2.175
X4.82Y-3.075
X4.825Y-2.375
X4.825Y-2.94
X4.845Y-2.69
X4.9Y-3.175
X4.91Y-2.47
X4.91Y-2.76
X4.93Y-2.965
X4.94Y-3.14
X4.95Y-2.5
X4.975Y-2.675
X4.995Y-2.84
X5.015Y-2.34
X5.025Y-3.355
X5.05Y-2.5
X5.05Y-3.15
X5.05Y-3.2
X5.1Y-2.4
X5.15Y-1.95
X5.15Y-2.24
X5.175Y-3.35
X5.19Y-2.75
X5.195Y-2.6
X5.3Y-2.65
X5.3Y-3.065
X5.3Y-3.145
X5.325Y-2.55
X5.36Y-2.285
X5.45Y-3.3
X5.475Y-2.425
X5.6Y-2.55
X5.6Y-2.645
X5.625Y-3.2
X5.625Y-3.3
X5.63Y-2.325
X5.63Y-2.425
X5.64Y-2.75
X5.675Y-3.075
X5.75Y-1.95
X5.75Y-3.15
X5.775Y-2.9
X5.785Y-2.75
X5.8Y-2.6
X5.815Y-2.465
X5.825Y-3.0
X5.865Y-2.75
X5.875Y-2.9
X5.915Y-2.425
X5.925Y-2.335
X5.975Y-3.15
X6.05Y-2.9
X6.075Y-3.15
X6.1Y-2.375
X6.3Y-2.375
X6.35Y-1.95
X6.355Y-2.565
X6.36Y-2.81
T2
X3.7Y-2.0006
X3.7Y-2.1006
X3.7Y-2.2006
X3.8Y-2.0006
X3.8Y-2.1006
X3.8Y-2.2006
X4.05Y-1.9
X4.175Y-3.425
X4.175Y-3.525
X4.275Y-3.425
X4.275Y-3.525
X4.3Y-2.0
X4.3Y-2.1
X4.3Y-2.2
X4.375Y-3.425
X4.375Y-3.525
X4.4Y-2.0
X4.4Y-2.1
X4.4Y-2.2
X4.475Y-3.425
X4.475Y-3.525
X4.575Y-3.425
X4.575Y-3.525
X4.675Y-3.425
X4.675Y-3.525
X4.775Y-3.425
X4.775Y-3.525
X4.875Y-3.425
X4.875Y-3.525
X4.8998Y-2.0006
X4.8998Y-2.1006
X4.8998Y-2.2006
X4.975Y-3.425
X4.975Y-3.525
X4.9998Y-2.0006
X4.9998Y-2.1006
X4.9998Y-2.2006
X5.075Y-3.0
X5.075Y-3.425
X5.075Y-3.525
X5.175Y-3.425
X5.175Y-3.525
X5.275Y-3.425
X5.275Y-3.525
X5.375Y-3.425
X5.375Y-3.525
X5.475Y-3.425
X5.475Y-3.525
X5.4998Y-2.0006
X5.4998Y-2.1006
X5.4998Y-2.2006
X5.575Y-3.425
X5.575Y-3.525
X5.5998Y-2.0006
X5.5998Y-2.1006
X5.5998Y-2.2006
X5.675Y-3.425
X5.675Y-3.525
X5.775Y-3.425
X5.775Y-3.525
X5.875Y-3.425
X5.875Y-3.525
X5.975Y-3.425
X5.975Y-3.525
X6.075Y-3.425
X6.075Y-3.525
X6.0998Y-2.0006
X6.0998Y-2.1006
X6.0998Y-2.2006
X6.1998Y-2.0006
X6.1998Y-2.1006
X6.1998Y-2.2006
X6.2Y-2.5
T3
X3.725Y-3.0061
X3.725Y-3.1439
T0
M30
